<?xml version="1.0" encoding="UTF-8"?>
<svg xmlns="http://www.w3.org/2000/svg" viewBox="-9.7 -5.6 757.4 681.1"><path fill="#111418" d="M 739.3004544,543.2488608 L 392.87141720716613,214.4351136711748 C 366.87087709570096,188.90472927099103 335.022361682702,171.28486968007564 300.91046040440716,162.57221976534288 L 300.90708596372576,162.52190526688327 C 287.4151375121339,159.87802178591483 276.7408843630357,148.34680727812014 275.92302700857283,134.13942018155504 L 275.40157026494506,122.45155644514128 C 274.6766160469332,105.8473750024508 287.5557967321719,91.79221563384263 304.16996865707824,91.06682522195709 L 398.3502445055999,86.95482557502686 C 379.46670369669715,69.86224570777148 355.04692640091395,56.64484139284065 327.49529718878625,48.038435188307346 C 313.94819417744117,43.81533206382585 299.6385348510957,40.69654224020289 284.8512870382766,38.78973807556591 L 280.6469037435819,33.508103753569344 C 269.28049997104637,13.43479397965092 247.4254751088822,1.416658172705354 224.13766106380913,2.4334260921913256 L 94.3712875625416,8.099148317074821 L -1.6954830518593553,183.394061410909 L 30.569692541865123,182.41587742712684 L 32.28,285.77 C 32.28,328.78999999999996 49.32,370.09999999999997 79.78,400.94 L 186.66,509.97 L 247.6,509.97 L 314.26,587.98 C 329.36,601.47 349.03999999999996,608.94 369.43,608.91 L 501.6228965,612.800388 C 533.9853668000001,643.1227776 548.9860552,649.2543264000001 574.0727245,652.153284 C 586.5014255,653.589516 601.4212271,654.2356472 622.1518177000002,656.6312264000001 L 716.2358776000001,667.5033632000001 C 717.2374137000002,667.6190984000001 717.6061695000002,666.5945240000001 716.8133590000001,665.877688 L 563.9640715,526.382988 C 563.1712610000001,525.666152 563.5400168000001,524.6415776 564.5536196,524.7587071999999 L 738.7243674000001,544.8854768 C 739.7259035000001,545.001212 740.0932649000001,543.9656967999999 739.3004544,543.2488607999999 L 739.3004544,543.2488608 M 207.06525380678414,67.63016688841734 L 207.06525380678414,67.63016688841734 C 206.50779803625514,54.86233061660121 221.18251512806816,47.08482598624255 231.67961918889426,54.584086372186476 L 254.45633721146498,67.356644575021 L 207.06481761291047,67.62017640620152 L 207.06525380678414,67.63016688841734"/></svg>